# xmcd
#
# Track frame offsets:
#	150
#	21930
#	40032
#	48275
#	56022
#	60147
#	68490
#	90670
#	105190
#	113287
#	121995
#	135165
#	140667
#	145780
#	160052
#	167035
#	174697
#	184857
#	188959
#	193902
#	205337
#	214527
#	220567
#	239610
#	251070
#	267045
#	294548
#
# Disc length: 4347 seconds
#
# Revision: 6
# Processed by: cddbd v1.5.2PL0 Copyright (c) Steve Scherf et al.
# Submitted via: VUPlayer 2.44
#
DISCID=7b10f91b
DTITLE=Éric Serra - The Fifth Element
DYEAR=1997
DGENRE=Soundtrack
TTITLE0=Little Light of Love
TTITLE1=Mondoshawan
TTITLE2=Timecrash
TTITLE3=Korben Dallas
TTITLE4=Koolen
TTITLE5=Akta
TTITLE6=Leeloo
TTITLE7=Five Millenia Later
TTITLE8=Plavalaguna
TTITLE9=Ruby Rap
TTITLE10=Heat
TTITLE11=Badaboom
TTITLE12=Mangalores
TTITLE13=Lucia di Lammermoor
TTITLE14=The Diva Dance
TTITLE15=Leeloominai
TTITLE16=A Bomb in the Hotel
TTITLE17=Mina Hinoo
TTITLE18=No Cash No Trash
TTITLE19=Radiowaves
TTITLE20=Human Nature
TTITLE21=Pictures of War
TTITLE22=Lakta Ligunai
TTITLE23=Protect Life
TTITLE24=Little Light of Love [End Titles Version]
TTITLE25=Aknot! Wot?
TTITLE26=Data Track
EXTD=
EXTT0=
EXTT1=
EXTT2=
EXTT3=
EXTT4=
EXTT5=
EXTT6=
EXTT7=
EXTT8=
EXTT9=
EXTT10=
EXTT11=
EXTT12=
EXTT13=
EXTT14=
EXTT15=
EXTT16=
EXTT17=
EXTT18=
EXTT19=
EXTT20=
EXTT21=
EXTT22=
EXTT23=
EXTT24=
EXTT25=
EXTT26=
PLAYORDER=
